<svg width="96" height="121" fill="none" xmlns="http://www.w3.org/2000/svg"><path d="M5.122 119.074c2.331-.466 3.866-3.607 5.1-5.386 2.244-3.231 4.13-6.439 5.244-10.233 4.227-14.393 5.564-28.982 6.542-43.88.512-7.793.333-15.737 1.394-23.477.89-6.48 1.982-13.083 3.786-19.373 1.384-4.822 2.872-9.532 4.452-14.273" stroke="#7E4C1E" stroke-width="3" stroke-linecap="round"/><path d="M31.327 2.662c1.041-.818 2.447-.65 3.683-.65h5.705c3.417 0 6.817.196 10.23.217 2.991.018 5.984.096 8.978.108 1.445.006 2.888.087 4.333.108 1.226.018 2.371.314 3.58.427 2.98.28 5.984.452 8.93.927 1.684.272 3.135.931 4.652 1.703.838.427 1.662.91 2.527 1.276.542.228 1.108.355 1.643.596a32.29 32.29 0 001.523.644c.335.13.834.385 1.191.385" stroke="#7E4C1E" stroke-width="3" stroke-linecap="round"/><path d="M79.979 6.35c.08.735.057 1.787.434 2.428.319.542.24 1.084.24 1.723v3.67M16.007 96.997c-2.277-1.434-3.975-2.382-5.411-4.537-.476-.713-.824-1.53-1.078-2.36-.385-1.255-1.31-2.58-1.384-3.905-.037-.673-.732-1.204-.732-1.831m15.563-31.492c3.194-2.172 6.436-4.387 9.052-7.252.595-.651 1.316-1.375 1.841-2.075.407-.542 1.138-.908 1.516-1.475.561-.842 1.363-1.22 1.689-2.197" stroke="#7E4C1E" stroke-width="3" stroke-linecap="round"/><path d="M29.354 49.971c1.284.024 3.396.29 4.087 1.6.394.746.29 1.888.889 2.487.3.3 1.113.665 1.066 1.066-.06.505-1.515.356-1.856.356-1.362 0-3.184-1.277-3.653-2.567-.157-.433-.355-1.15-.355-1.61 0-.326-.624-.488-.889-.621" stroke="#2A8D46" stroke-linecap="round"/><path d="M34.328 54.894c0 .163-.136.201-.13.365.003.126.231.214.338.208.13-.007.246-.134.165-.266-.176-.287-.578-.333-.881-.333-.146 0-.274-.078-.428-.078h-.405c-.314 0-.643-.18-.82-.437-.098-.14-.274-.253-.397-.376-.128-.128-.256-.33-.41-.416-.334-.185-.473-.597-.626-.918-.05-.106-.08-.233-.117-.345-.094-.282-.175-.562-.308-.83a1.922 1.922 0 00-.298-.407c-.03-.034.009-.062.04-.061.177.005.353.072.521.119.14.038.284.028.422.057.248.054.511.027.754.1.483.145.835.453 1.198.78.449.404.626.9.626 1.49 0 .254.015.503.026.755.002.04.067.278.015.301-.112.05-.37-.382-.431-.457-.378-.46-.506-1.073-.767-1.594-.083-.167-.169-.334-.317-.456-.15-.124-.331-.208-.493-.31a1.07 1.07 0 00-.466-.12c-.097 0-.108.063-.117.155-.017.167.037.233.135.352.14.17.35.367.54.477.077.044.098.118.151.188.064.085.172.182.216.277.08.175.241.296.3.481.024.074.165.361.245.388M7.728 82.666c-.13-1.278-.121-3.407 1.095-4.25.694-.481 1.84-.515 2.363-1.182.262-.334.526-1.185.93-1.187.508-.002.535 1.462.576 1.8.164 1.352-.884 3.314-2.108 3.935-.411.209-1.1.492-1.555.547-.324.04-.41.678-.51.957" stroke="#2A8D46" stroke-linecap="round"/><path d="M12.016 77.135c.162-.02.216.11.378.086.125-.02.185-.256.166-.361-.023-.128-.163-.229-.284-.132-.264.21-.26.614-.224.915.017.145-.045.281-.026.434l.048.402c.038.312-.1.66-.335.867-.128.114-.218.302-.325.439-.112.142-.297.294-.364.458-.144.353-.536.54-.836.73-.1.064-.222.108-.329.159-.268.127-.536.24-.786.405a1.92 1.92 0 00-.369.345c-.03.034-.062 0-.065-.032-.016-.176.03-.359.055-.532.022-.143-.006-.285.007-.426.023-.252-.035-.51.008-.76.086-.497.349-.883.63-1.283.347-.494.818-.73 1.404-.802.252-.03.498-.075.746-.116.039-.007.268-.1.297-.05.063.104-.334.412-.402.482-.41.431-1.004.632-1.49.953-.155.103-.31.208-.414.37-.105.164-.167.354-.25.527a1.07 1.07 0 00-.061.476c.011.097.075.1.168.098.167-.003.227-.065.332-.176a2.26 2.26 0 00.41-.594c.034-.082.104-.111.168-.172.076-.074.16-.193.248-.248.165-.101.265-.275.442-.356.07-.033.339-.207.355-.29M7.697 92.575c-1.277.139-3.405.143-4.257-1.068-.486-.69-.527-1.836-1.197-2.355-.336-.26-1.19-.518-1.193-.922-.005-.508 1.458-.545 1.796-.588 1.351-.173 3.32.862 3.949 2.082.211.41.498 1.096.556 1.551.042.325.68.407.96.504" stroke="#2A8D46" stroke-linecap="round"/><path d="M2.139 88.323c-.021-.162.108-.217.082-.378-.02-.125-.257-.184-.362-.164-.127.023-.227.164-.13.285.212.263.616.257.917.218.144-.019.281.043.434.023l.402-.051c.311-.04.66.096.87.329.114.127.303.217.44.323.143.11.296.295.46.36.354.142.545.533.737.831.064.1.109.222.16.328.129.268.244.535.41.783.094.14.224.26.348.367.034.03 0 .063-.032.066-.176.017-.359-.027-.532-.052-.144-.02-.285.008-.426-.004-.253-.021-.51.038-.76-.003-.498-.082-.886-.343-1.288-.621-.496-.344-.735-.814-.81-1.399-.032-.252-.079-.497-.122-.746-.007-.038-.101-.267-.052-.296.104-.064.414.332.485.398.434.409.638 1 .963 1.484.104.155.21.31.372.412.165.104.355.165.529.246.118.056.347.075.477.059.096-.013.1-.076.097-.169-.005-.167-.067-.226-.178-.331a2.226 2.226 0 00-.598-.405c-.081-.034-.111-.104-.173-.168-.074-.076-.194-.158-.249-.246-.103-.165-.277-.264-.36-.44-.032-.07-.209-.337-.291-.353M88.71 9c1.285.024 3.397.29 4.088 1.6.394.746.29 1.888.888 2.487.3.3 1.114.665 1.067 1.066-.06.504-1.516.356-1.856.356-1.363 0-3.184-1.277-3.653-2.567-.158-.434-.356-1.15-.356-1.61 0-.327-.623-.489-.888-.621" stroke="#2A8D46" stroke-linecap="round"/><path d="M93.684 13.923c0 .163-.135.201-.13.365.004.126.232.214.339.208.13-.007.246-.134.165-.266-.177-.287-.578-.333-.881-.333-.147 0-.275-.078-.429-.078h-.405c-.314 0-.642-.18-.82-.437-.097-.14-.274-.253-.396-.376-.128-.128-.256-.33-.411-.417-.333-.185-.473-.597-.625-.917-.05-.106-.08-.234-.117-.346-.094-.281-.175-.561-.308-.829a1.929 1.929 0 00-.298-.407c-.03-.034.008-.062.04-.061.177.005.352.072.52.119.14.038.285.027.423.057.248.054.51.027.754.1.483.145.834.453 1.198.78.448.404.626.9.626 1.49 0 .254.015.503.026.755.002.04.067.278.015.301-.112.05-.37-.382-.431-.457-.379-.46-.506-1.073-.767-1.594-.083-.167-.17-.334-.317-.456-.15-.124-.331-.208-.493-.311a1.07 1.07 0 00-.466-.119c-.097 0-.108.063-.117.155-.017.167.037.233.134.352.14.17.35.367.541.477.077.044.098.117.15.188.064.085.173.182.216.276.081.176.242.297.301.482.024.074.165.361.245.388M18.71 96c1.285.024 3.397.29 4.088 1.6.394.746.29 1.888.888 2.487.3.3 1.114.665 1.067 1.066-.06.504-1.516.356-1.856.356-1.363 0-3.184-1.277-3.653-2.567-.158-.433-.355-1.15-.355-1.61 0-.326-.624-.489-.889-.621" stroke="#2A8D46" stroke-linecap="round"/><path d="M23.684 100.923c0 .163-.135.201-.13.365.004.126.232.214.339.208.13-.007.246-.134.165-.266-.177-.287-.578-.333-.881-.333-.146 0-.275-.078-.429-.078h-.405c-.314 0-.642-.179-.82-.437-.097-.141-.274-.253-.396-.376-.128-.128-.256-.33-.411-.417-.333-.185-.473-.596-.625-.917-.05-.106-.08-.234-.117-.346-.094-.281-.175-.561-.308-.828a1.929 1.929 0 00-.298-.408c-.03-.034.008-.062.04-.061.176.005.352.072.52.118.14.039.285.028.423.058.248.054.51.027.754.1.483.145.834.453 1.198.78.448.404.626.9.626 1.49 0 .254.015.503.026.755.002.039.067.278.015.301-.112.05-.37-.382-.431-.457-.379-.46-.506-1.073-.767-1.594-.083-.167-.17-.334-.317-.456-.15-.124-.331-.208-.493-.311a1.07 1.07 0 00-.466-.119c-.097 0-.108.063-.117.155-.017.167.037.233.134.352.14.17.35.367.541.477.077.044.098.118.15.188.064.085.173.182.216.276.081.176.242.297.301.482.024.074.165.361.245.388M35.668 38.11c-.977-.835-2.439-2.382-2.14-3.832.17-.827.976-1.642.893-2.486-.04-.422-.437-1.22-.146-1.5.366-.352 1.396.688 1.66.904 1.052.866 1.647 3.009 1.19 4.303-.154.435-.457 1.114-.748 1.468-.208.253.17.774.291 1.045" stroke="#2A8D46" stroke-linecap="round"/><path d="M34.954 31.148c.103-.126.232-.07.332-.199.078-.1-.043-.313-.129-.376-.104-.077-.275-.053-.296.101-.047.334.235.624.469.817.113.092.162.234.28.332l.314.257c.242.2.382.547.356.859-.015.17.05.37.067.542.017.18-.013.418.052.583.14.354-.014.76-.1 1.105-.028.114-.087.232-.129.342-.106.276-.222.544-.288.835a1.923 1.923 0 00-.03.505c.003.045-.045.042-.07.021-.132-.116-.225-.28-.326-.422-.084-.119-.202-.202-.29-.313-.157-.2-.377-.346-.518-.556-.281-.419-.357-.88-.43-1.363-.09-.597.088-1.094.463-1.55.161-.195.308-.397.46-.599.023-.031.125-.257.18-.241.117.032.042.529.042.627 0 .595-.29 1.15-.42 1.718-.042.181-.082.365-.045.553.037.191.123.371.183.553.04.124.183.305.284.388.075.062.123.02.19-.045.118-.118.119-.204.118-.357 0-.221-.037-.506-.114-.712-.031-.083 0-.153.003-.241.005-.106-.017-.25.01-.35.048-.188.001-.383.073-.564.028-.072.102-.383.057-.455m-12.075-5.528c-1.207.44-3.273.95-4.389-.023-.636-.555-.948-1.659-1.723-2.002-.388-.173-1.278-.22-1.378-.612-.126-.492 1.286-.876 1.604-.999 1.271-.49 3.43.047 4.331 1.082.303.348.745.946.91 1.374.118.306.758.233 1.053.261" stroke="#2A8D46" stroke-linecap="round"/><path d="M17.217 24.609c-.059-.152.053-.236-.01-.387-.049-.117-.293-.117-.39-.073-.12.053-.182.213-.059.308.268.204.659.102.942-.006.136-.053.284-.026.427-.082l.378-.145c.293-.113.664-.064.923.113.141.096.346.138.505.208.165.074.357.217.533.241.377.053.655.387.913.632.085.08.159.19.234.28.188.229.364.462.585.663.123.113.28.2.425.273.04.02.014.061-.016.072-.166.059-.355.059-.529.076-.144.015-.275.076-.415.098-.25.04-.486.159-.739.178-.502.038-.941-.123-1.398-.297-.564-.216-.908-.615-1.12-1.166-.091-.237-.195-.464-.296-.695-.016-.036-.162-.235-.122-.275.087-.087.482.223.567.271.518.293.858.82 1.289 1.212.137.126.277.25.459.312.185.061.384.074.572.112.128.026.355-.01.477-.056.091-.035.079-.097.054-.187-.044-.161-.118-.204-.252-.28a2.227 2.227 0 00-.676-.25c-.088-.014-.133-.075-.208-.122-.09-.056-.226-.108-.3-.18-.14-.135-.332-.19-.455-.342-.048-.06-.283-.277-.367-.274M38.012 3.17c1.241.33 3.228 1.093 3.586 2.53.205.82-.17 1.903.268 2.628.22.364.922.912.78 1.29-.178.476-1.556-.017-1.886-.098-1.323-.326-2.786-2.001-2.933-3.366-.05-.459-.07-1.202.04-1.647.077-.318-.49-.625-.715-.817" stroke="#2A8D46" stroke-linecap="round"/><path d="M41.664 9.14c-.038.157-.179.162-.213.322-.027.124.173.264.279.284.127.024.27-.072.224-.22-.103-.32-.482-.46-.776-.533-.142-.035-.248-.142-.397-.178l-.394-.097a1.044 1.044 0 01-.692-.62c-.06-.16-.205-.312-.295-.46-.093-.155-.17-.383-.3-.503-.278-.26-.315-.693-.387-1.04-.023-.116-.021-.247-.03-.364-.025-.296-.036-.587-.102-.879a1.92 1.92 0 00-.192-.467c-.02-.04.024-.058.054-.05.17.047.325.155.478.24.126.071.269.095.396.158.227.11.49.148.708.277.434.256.702.639.977 1.043.339.5.392 1.024.252 1.597-.061.247-.106.492-.156.74-.008.038-.002.285-.058.295-.12.021-.267-.46-.309-.547-.257-.537-.235-1.163-.363-1.731-.041-.182-.085-.365-.199-.519-.116-.156-.272-.28-.405-.42a1.069 1.069 0 00-.424-.226c-.094-.023-.12.035-.15.122-.056.158-.02.236.046.374.096.2.253.44.412.593.063.06.066.137.1.218.042.098.124.218.144.32.037.19.163.346.177.54.005.077.074.39.145.435m39.948 7.473c-.165 1.273-.662 3.343-2.04 3.885-.786.31-1.909.08-2.57.609-.332.265-.784 1.033-1.178.942-.495-.115-.186-1.545-.148-1.884.15-1.354 1.62-3.023 2.954-3.347.448-.109 1.182-.226 1.638-.176.326.036.555-.566.716-.814" stroke="#2A8D46" stroke-linecap="round"/><path d="M74.72 19.716c-.161-.018-.184-.156-.347-.17-.127-.01-.239.207-.245.314-.007.13.106.26.246.194.306-.144.395-.538.428-.84.016-.144.108-.263.125-.416l.045-.403c.035-.312.25-.618.525-.767.15-.081.282-.244.417-.352.141-.113.357-.218.46-.363.22-.31.645-.403.98-.52.112-.038.242-.053.357-.078.29-.062.577-.111.858-.215.156-.058.305-.156.438-.25.036-.027.06.015.056.046-.024.175-.11.342-.175.505-.054.134-.06.279-.105.413-.08.24-.083.505-.182.738-.197.464-.542.78-.907 1.105-.45.4-.964.523-1.55.458-.253-.028-.502-.041-.754-.058-.039-.002-.283.036-.3-.019-.037-.116.42-.324.502-.378.499-.325 1.122-.384 1.669-.586.175-.064.35-.13.488-.264.14-.136.243-.307.363-.456.082-.102.155-.32.17-.45.01-.097-.05-.114-.141-.134-.164-.035-.236.012-.365.095a2.229 2.229 0 00-.534.485c-.052.072-.127.084-.203.13-.091.053-.2.15-.299.183-.184.061-.321.207-.512.246-.076.015-.377.124-.412.2" stroke="#2A8D46" stroke-linecap="round"/></svg>