<svg width="36" height="24" fill="none" xmlns="http://www.w3.org/2000/svg"><path d="M25.488 6H27a9 9 0 110 18H7a7 7 0 01-1-13.93C6 4.478 10.477 0 16 0h1a9.004 9.004 0 018.488 6zm.457 2c.036.328.055.662.055 1a1 1 0 11-2 0 7 7 0 00-7-7h-1a8 8 0 00-8 8v1a1 1 0 01-1 1 5 5 0 000 10h20a7 7 0 100-14h-1.055z" fill="#F4F4F4"/><path d="M15.562 15.51c.045 0 .084.02.116.062l.322.398a2.62 2.62 0 01-.89.758c-.35.182-.77.272-1.266.272a2.64 2.64 0 01-1.167-.256 2.58 2.58 0 01-.897-.716 3.338 3.338 0 01-.576-1.107A4.696 4.696 0 0111 13.502c0-.516.072-.99.213-1.42.143-.43.34-.8.599-1.107.258-.31.566-.55.924-.72.36-.17.755-.255 1.189-.255.425 0 .8.079 1.127.234.324.155.61.367.858.634l-.267.426a.234.234 0 01-.064.079.171.171 0 01-.107.03c-.05 0-.112-.03-.183-.093a2.09 2.09 0 00-.721-.417 1.934 1.934 0 00-.647-.093 1.863 1.863 0 00-1.508.718 2.556 2.556 0 00-.432.85 3.852 3.852 0 00-.153 1.132c0 .427.054.807.16 1.141a2.6 2.6 0 00.439.848c.185.23.402.407.654.528.252.121.524.182.816.182a2.8 2.8 0 00.481-.037 1.583 1.583 0 00.734-.304c.105-.08.209-.173.312-.28.044-.044.09-.068.138-.068zM23 13.505c0 .512-.072.983-.217 1.413a3.343 3.343 0 01-.612 1.107c-.262.31-.58.55-.948.72-.369.17-.778.255-1.225.255-.447 0-.855-.084-1.223-.255a2.732 2.732 0 01-.946-.72 3.315 3.315 0 01-.612-1.107A4.397 4.397 0 0117 13.505c0-.514.072-.985.217-1.414.145-.428.349-.8.612-1.109.262-.31.579-.553.946-.724A2.844 2.844 0 0119.998 10a2.762 2.762 0 012.173.982c.264.31.468.68.612 1.109.145.43.217.9.217 1.414zm-.846 0c0-.422-.05-.8-.153-1.133a2.473 2.473 0 00-.433-.849 1.892 1.892 0 00-.68-.533 2.085 2.085 0 00-.892-.187c-.326 0-.62.063-.887.187a1.895 1.895 0 00-.681.533 2.45 2.45 0 00-.436.849 3.897 3.897 0 00-.153 1.133c0 .42.052.797.153 1.13.102.332.246.614.436.846.188.232.415.408.68.53.267.123.562.185.888.185.328 0 .626-.062.892-.185.266-.122.492-.3.68-.53.188-.232.33-.514.433-.846a3.79 3.79 0 00.153-1.13z" fill="#EBEAEC"/></svg>