<svg width="38" height="25" fill="none" xmlns="http://www.w3.org/2000/svg"><path d="M13.64 24.218a.491.491 0 01-.182-.035 160.02 160.02 0 01-4.132-.06c-.996-.023-1.92-.046-2.99-.046A6.343 6.343 0 010 17.742a6.286 6.286 0 012.758-5.23 10.44 10.44 0 01-.214-2.1C2.544 4.672 7.215 0 12.958 0c3.844 0 7.366 2.127 9.172 5.478a6.282 6.282 0 014.52-1.896 6.343 6.343 0 016.15 7.87 6.34 6.34 0 014.617 6.1 6.344 6.344 0 01-6.336 6.337c-1.628 0-5.326.085-8.902.167-3.609.085-7.017.162-8.54.162zM12.958.983c-5.2 0-9.43 4.23-9.43 9.43 0 .746.088 1.49.263 2.212a.49.49 0 01-.224.535 5.316 5.316 0 00-2.585 4.582 5.358 5.358 0 005.353 5.352c1.079 0 2.01.022 3.015.047 1.167.027 2.433.058 4.15.058.065 0 .125.012.182.034 1.535-.002 5.062-.082 8.473-.16 3.582-.082 7.285-.167 8.925-.167a5.36 5.36 0 005.353-5.354 5.35 5.35 0 00-4.345-5.257.49.49 0 01-.372-.64 5.358 5.358 0 00-5.067-7.088 5.318 5.318 0 00-4.244 2.091.49.49 0 01-.837-.1 9.452 9.452 0 00-8.61-5.575z" fill="#1A171B"/><path d="M16.446 14.765a.16.16 0 01.124.058l.341.367a2.716 2.716 0 01-.944.703c-.37.168-.817.251-1.342.251-.454 0-.866-.079-1.238-.236a2.702 2.702 0 01-.95-.664 2.976 2.976 0 01-.61-1.024 3.84 3.84 0 01-.217-1.313c0-.477.076-.916.226-1.314a2.858 2.858 0 011.615-1.692c.381-.157.8-.236 1.26-.236.45 0 .85.073 1.194.217.345.144.648.34.911.587l-.283.394a.226.226 0 01-.069.073.201.201 0 01-.113.028c-.053 0-.118-.028-.194-.086a2.37 2.37 0 00-.765-.386 2.324 2.324 0 00-.685-.086c-.328 0-.627.058-.9.17a1.95 1.95 0 00-.7.494 2.272 2.272 0 00-.457.787c-.109.31-.162.658-.162 1.048 0 .395.057.747.17 1.056.113.31.268.571.464.785.197.213.427.377.694.489.268.112.556.168.865.168.19 0 .36-.01.51-.034a1.941 1.941 0 00.779-.282c.11-.073.22-.16.33-.259a.222.222 0 01.146-.063zm7.192-1.857c0 .474-.075.91-.226 1.308a3.013 3.013 0 01-.637 1.023c-.273.286-.604.51-.987.666-.385.158-.81.236-1.276.236-.466 0-.89-.078-1.274-.235a2.834 2.834 0 01-.986-.667 2.987 2.987 0 01-.636-1.023 3.653 3.653 0 01-.226-1.308c0-.475.075-.91.226-1.308a2.875 2.875 0 011.622-1.695c.382-.16.808-.239 1.274-.239.466 0 .891.08 1.276.24.383.158.713.383.987.669.275.287.487.63.637 1.025.151.398.226.833.226 1.308zm-.88 0c0-.39-.054-.74-.16-1.048a2.205 2.205 0 00-.451-.785 1.953 1.953 0 00-.708-.493 2.406 2.406 0 00-.93-.173 2.39 2.39 0 00-.924.173 1.957 1.957 0 00-.708.493 2.2 2.2 0 00-.455.785 3.23 3.23 0 00-.159 1.048c0 .389.054.737.16 1.046.106.307.256.568.454.782.195.215.432.377.708.49.278.114.585.171.924.171.342 0 .652-.057.93-.17.277-.114.512-.277.708-.49.195-.215.344-.476.45-.783.108-.309.16-.657.16-1.046zm3.84 5.676c.05 0 .09.015.119.044a.156.156 0 01.044.113v.28h-2.465v-.158a.286.286 0 01.084-.197l1.184-1.188c.098-.1.186-.195.268-.288.08-.092.149-.184.206-.278.057-.093.099-.187.13-.282a.991.991 0 00.047-.306.718.718 0 00-.052-.284.546.546 0 00-.35-.324.834.834 0 00-.52.003.685.685 0 00-.364.288.725.725 0 00-.088.222c-.02.06-.049.1-.083.12a.24.24 0 01-.15.017l-.24-.042a1.32 1.32 0 01.143-.447 1.092 1.092 0 01.624-.526c.136-.045.283-.068.441-.068.157 0 .302.024.438.069a.954.954 0 01.588.526c.057.127.084.271.084.433 0 .137-.02.266-.061.382a1.51 1.51 0 01-.167.336 2.55 2.55 0 01-.244.313c-.092.101-.19.204-.292.307l-.975.994a1.98 1.98 0 01.209-.044c.07-.012.138-.017.204-.017h1.238v.002z" fill="#1A171B"/></svg>