<svg width="28" height="33" fill="none" xmlns="http://www.w3.org/2000/svg"><path d="M1.321 14V3.09h3.686c.852 0 1.552.147 2.099.438.547.287.952.683 1.214 1.188.263.504.394 1.077.394 1.72s-.13 1.213-.394 1.71c-.262.497-.666.888-1.209 1.172-.543.28-1.237.42-2.083.42H2.045V8.546h2.94c.583 0 1.052-.085 1.407-.255.359-.17.618-.412.778-.725.163-.316.245-.692.245-1.129 0-.437-.082-.818-.245-1.145a1.67 1.67 0 00-.783-.757c-.359-.18-.833-.271-1.423-.271H2.642V14H1.321zm5.135-4.9L9.141 14H7.607L4.964 9.1h1.492z" fill="#E4E1E1"/><path d="M19.887 32.189a7.78 7.78 0 01-4.612-1.52 8.039 8.039 0 01-2.87-3.983 8.204 8.204 0 01-.046-4.944 8.047 8.047 0 012.796-4.038V4.828c0-1.28.498-2.508 1.386-3.414A4.685 4.685 0 0119.887 0c1.255 0 2.458.509 3.346 1.414a4.879 4.879 0 011.386 3.414v12.876a8.047 8.047 0 012.795 4.038 8.202 8.202 0 01-.046 4.944 8.037 8.037 0 01-2.87 3.984 7.78 7.78 0 01-4.611 1.519zm1.577-20.054V4.828a1.524 1.524 0 00-.457-1.11 1.578 1.578 0 00-1.12-.5c-.419 0-.82.17-1.116.472a1.626 1.626 0 00-.462 1.138v7.307h3.155z" fill="#DBD6D7"/></svg>