<svg width="131" height="111" fill="none" xmlns="http://www.w3.org/2000/svg"><path d="M60.66 58.91c-.103-.864-.518-1.535-1.245-2.012-.727-.478-1.62-.716-2.676-.716-.773 0-1.45.125-2.029.375-.574.25-1.023.594-1.346 1.031a2.472 2.472 0 00-.478 1.492c0 .465.111.866.333 1.201.227.33.517.605.87.827a6.23 6.23 0 001.107.537c.386.136.742.247 1.065.332l1.773.478c.455.119.96.284 1.517.494a7 7 0 011.61.86c.518.359.944.819 1.28 1.381.335.563.502 1.253.502 2.071 0 .944-.247 1.796-.741 2.557-.489.761-1.205 1.367-2.148 1.816-.938.448-2.077.673-3.418.673-1.25 0-2.332-.202-3.247-.605-.909-.404-1.625-.966-2.148-1.688-.517-.721-.81-1.56-.877-2.514h2.181c.057.66.279 1.204.665 1.636a3.6 3.6 0 001.483.955 5.99 5.99 0 001.943.307c.807 0 1.532-.131 2.174-.392.642-.267 1.15-.637 1.525-1.108a2.625 2.625 0 00.563-1.67c0-.58-.162-1.052-.486-1.415-.324-.364-.75-.66-1.279-.887a13.518 13.518 0 00-1.713-.597l-2.147-.613c-1.364-.392-2.444-.952-3.239-1.68-.795-.726-1.193-1.678-1.193-2.854 0-.977.264-1.83.792-2.557.535-.733 1.25-1.301 2.148-1.705.904-.409 1.912-.613 3.026-.613 1.125 0 2.125.201 3 .605.875.398 1.568.943 2.08 1.636.516.694.79 1.48.818 2.361h-2.046zm20.486 4.363c0 1.84-.333 3.431-.998 4.773-.664 1.34-1.576 2.374-2.735 3.102-1.16.727-2.483 1.09-3.972 1.09-1.489 0-2.812-.363-3.972-1.09-1.159-.727-2.07-1.762-2.735-3.102-.665-1.342-.997-2.932-.997-4.773 0-1.841.332-3.432.997-4.773.664-1.34 1.576-2.375 2.736-3.102 1.159-.728 2.482-1.091 3.971-1.091 1.489 0 2.813.363 3.972 1.09 1.159.728 2.07 1.762 2.735 3.103.665 1.34.998 2.932.998 4.773zm-2.046 0c0-1.512-.253-2.787-.758-3.827-.5-1.04-1.18-1.827-2.037-2.36-.853-.535-1.807-.802-2.864-.802s-2.014.267-2.872.801c-.852.534-1.531 1.321-2.037 2.361-.5 1.04-.75 2.315-.75 3.827 0 1.511.25 2.787.75 3.826.506 1.04 1.185 1.827 2.037 2.361.858.534 1.815.801 2.872.801s2.011-.267 2.864-.8c.858-.535 1.537-1.322 2.037-2.362.505-1.04.758-2.315.758-3.826z" fill="#F8F3F3"/><path clip-rule="evenodd" d="M65.5 20.859l47.078 68.778H18.422L65.5 20.859z" stroke="#EAE9E9" stroke-width="4" stroke-linecap="round" stroke-linejoin="round"/><path d="M86 80.226V82h-6c.063-.67.261-1.308.59-1.913.33-.603.969-1.398 1.92-2.381.752-.781 1.216-1.312 1.388-1.588.26-.404.386-.81.386-1.217 0-.434-.107-.763-.317-.983-.213-.223-.494-.334-.842-.334-.755 0-1.166.519-1.224 1.555l-1.7-.19c.103-1.015.412-1.76.924-2.235.512-.475 1.194-.714 2.046-.714.935 0 1.64.28 2.117.837.474.556.712 1.194.712 1.915 0 .408-.06.802-.183 1.185a4.64 4.64 0 01-.56 1.155c-.25.387-.672.883-1.262 1.484-.55.568-.898.94-1.042 1.122-.147.18-.264.357-.355.528H86z" fill="#F0EFEF"/></svg>