<svg width="175" height="149" fill="none" xmlns="http://www.w3.org/2000/svg"><path d="M79.517 79.454c-.145-1.223-.732-2.173-1.763-2.849-1.03-.676-2.294-1.014-3.79-1.014-1.096 0-2.053.177-2.874.531-.814.354-1.45.841-1.908 1.461a3.502 3.502 0 00-.676 2.113c0 .66.157 1.228.47 1.702.323.467.733.858 1.232 1.172.5.306 1.022.559 1.57.76.547.193 1.05.35 1.509.471l2.511.676c.644.17 1.36.403 2.15.7a9.923 9.923 0 012.281 1.22 6.21 6.21 0 011.811 1.956c.475.797.713 1.775.713 2.934 0 1.336-.35 2.543-1.05 3.622-.693 1.079-1.707 1.936-3.043 2.572-1.328.636-2.942.954-4.842.954-1.77 0-3.304-.286-4.6-.858-1.288-.571-2.302-1.368-3.043-2.39-.732-1.022-1.147-2.21-1.243-3.562h3.09c.081.934.395 1.706.942 2.318.556.604 1.256 1.055 2.101 1.353.854.29 1.771.434 2.753.434 1.143 0 2.17-.185 3.079-.555.91-.379 1.63-.902 2.161-1.57.531-.676.797-1.465.797-2.366 0-.821-.23-1.49-.688-2.005-.459-.515-1.063-.933-1.811-1.255a19.031 19.031 0 00-2.427-.846l-3.043-.869c-1.931-.555-3.46-1.348-4.588-2.378-1.127-1.03-1.69-2.379-1.69-4.045 0-1.385.374-2.592 1.123-3.622.757-1.039 1.77-1.843 3.042-2.415 1.28-.58 2.709-.87 4.287-.87 1.593 0 3.01.286 4.25.858 1.24.563 2.221 1.336 2.946 2.318a5.775 5.775 0 011.159 3.344h-2.898zm29.023 6.182c0 2.608-.471 4.862-1.413 6.762-.942 1.9-2.234 3.364-3.876 4.395-1.642 1.03-3.517 1.545-5.626 1.545-2.11 0-3.985-.515-5.627-1.545-1.642-1.03-2.934-2.496-3.875-4.395-.942-1.9-1.413-4.154-1.413-6.762 0-2.608.47-4.861 1.413-6.761.941-1.9 2.233-3.365 3.875-4.395 1.642-1.03 3.518-1.545 5.627-1.545s3.984.515 5.626 1.545c1.642 1.03 2.934 2.495 3.876 4.395.942 1.9 1.413 4.153 1.413 6.761zm-2.898 0c0-2.14-.358-3.948-1.075-5.42-.708-1.474-1.67-2.589-2.885-3.345-1.208-.757-2.56-1.135-4.057-1.135-1.497 0-2.854.378-4.07 1.135-1.207.756-2.168 1.871-2.885 3.344-.708 1.473-1.062 3.28-1.062 5.421 0 2.142.354 3.949 1.062 5.422.717 1.472 1.678 2.587 2.886 3.344 1.215.757 2.572 1.135 4.069 1.135 1.497 0 2.849-.378 4.057-1.135 1.215-.757 2.177-1.871 2.885-3.344.717-1.474 1.075-3.28 1.075-5.422z" fill="#F8F3F3"/><path clip-rule="evenodd" d="M87.5 28.752l62.891 91.879H24.609L87.5 28.751z" stroke="#EAE9E9" stroke-width="4" stroke-linecap="round" stroke-linejoin="round"/><path d="M118 106.807V110h-11a8.751 8.751 0 011.083-3.443c.604-1.085 1.775-2.517 3.518-4.286 1.38-1.407 2.23-2.362 2.546-2.859.474-.726.707-1.457.707-2.191 0-.78-.196-1.373-.581-1.77-.391-.4-.906-.6-1.543-.6-1.385 0-2.138.934-2.245 2.8l-3.118-.342c.191-1.828.757-3.168 1.696-4.024.939-.855 2.189-1.285 3.75-1.285 1.716 0 3.007.505 3.881 1.507.869 1.001 1.306 2.149 1.306 3.447a6.88 6.88 0 01-.335 2.133c-.218.688-.562 1.381-1.027 2.078-.46.697-1.231 1.59-2.314 2.671-1.009 1.022-1.645 1.694-1.91 2.02-.27.325-.483.642-.651.951H118z" fill="#F0EFEF"/></svg>