<svg width="32" height="66" fill="none" xmlns="http://www.w3.org/2000/svg"><path d="M15.887 65.555a15.67 15.67 0 01-9.29-3.06 16.192 16.192 0 01-5.782-8.023 16.525 16.525 0 01-.092-9.96 16.21 16.21 0 015.632-8.135V10.441a9.828 9.828 0 012.791-6.877 9.436 9.436 0 016.74-2.85 9.437 9.437 0 016.74 2.85 9.827 9.827 0 012.793 6.877v25.936a16.21 16.21 0 015.631 8.135 16.525 16.525 0 01-.092 9.96 16.192 16.192 0 01-5.782 8.024 15.672 15.672 0 01-9.29 3.06zm3.177-40.395V10.44a3.068 3.068 0 00-.23-1.216 3.018 3.018 0 00-.692-1.02 3.178 3.178 0 00-1.028-.735 3.124 3.124 0 00-1.227-.27c-.843 0-1.651.341-2.247.95a3.276 3.276 0 00-.93 2.292V25.16h6.354z" fill="#DBD6D7"/></svg>