<svg width="106" height="90" fill="none" xmlns="http://www.w3.org/2000/svg"><path d="M7.887 32.189a7.78 7.78 0 01-4.612-1.52 8.038 8.038 0 01-2.87-3.983 8.203 8.203 0 01-.046-4.944 8.047 8.047 0 012.796-4.038V4.828c0-1.28.498-2.508 1.386-3.414A4.685 4.685 0 017.887 0c1.255 0 2.458.509 3.346 1.414a4.879 4.879 0 011.385 3.414v12.876a8.047 8.047 0 012.796 4.038 8.202 8.202 0 01-.046 4.944 8.037 8.037 0 01-2.87 3.984 7.78 7.78 0 01-4.611 1.519zm1.577-20.054V4.828a1.523 1.523 0 00-.458-1.11 1.577 1.577 0 00-1.12-.5c-.418 0-.819.17-1.115.472a1.626 1.626 0 00-.462 1.138v7.307h3.155z" fill="#DBD6D7"/></svg>