<svg width="122" height="108" fill="none" xmlns="http://www.w3.org/2000/svg"><path d="M65.618 2.673a5.326 5.326 0 00-9.236 0L.708 99.588a5.325 5.325 0 004.617 7.978h111.35a5.332 5.332 0 004.609-2.658 5.32 5.32 0 00.008-5.32L65.618 2.673zM10.846 99.045L61 11.74l50.154 87.305H10.846z" fill="#E3E2E2"/><path d="M52.517 60.455c-.145-1.224-.732-2.174-1.763-2.85-1.03-.676-2.294-1.014-3.79-1.014-1.096 0-2.053.177-2.874.531-.814.354-1.45.841-1.908 1.461a3.502 3.502 0 00-.676 2.113c0 .66.157 1.227.47 1.702.322.467.733.858 1.232 1.172.5.306 1.022.559 1.57.76.547.193 1.05.35 1.509.471l2.511.676c.644.17 1.36.403 2.15.7a9.923 9.923 0 012.281 1.22 6.21 6.21 0 011.812 1.956c.474.797.712 1.775.712 2.934 0 1.336-.35 2.543-1.05 3.622-.693 1.079-1.707 1.936-3.043 2.572-1.328.636-2.942.954-4.842.954-1.77 0-3.304-.286-4.6-.858-1.288-.571-2.302-1.368-3.043-2.39-.732-1.022-1.147-2.21-1.243-3.562h3.09c.081.934.395 1.706.943 2.318.555.604 1.255 1.055 2.1 1.353.854.29 1.771.434 2.753.434 1.143 0 2.17-.185 3.079-.555.91-.379 1.63-.902 2.161-1.57.532-.676.797-1.465.797-2.366 0-.821-.23-1.49-.688-2.005-.459-.515-1.063-.933-1.811-1.255a19.031 19.031 0 00-2.427-.846l-3.043-.869c-1.931-.555-3.46-1.348-4.588-2.378-1.127-1.03-1.69-2.379-1.69-4.045 0-1.385.374-2.592 1.123-3.622.756-1.039 1.77-1.843 3.042-2.415 1.28-.58 2.709-.87 4.287-.87 1.593 0 3.01.286 4.25.858 1.24.563 2.221 1.336 2.946 2.318a5.775 5.775 0 011.159 3.345h-2.898zm29.023 6.181c0 2.608-.471 4.862-1.413 6.762-.942 1.9-2.234 3.364-3.876 4.395-1.642 1.03-3.517 1.545-5.626 1.545-2.11 0-3.985-.515-5.627-1.545-1.642-1.03-2.934-2.496-3.875-4.395-.942-1.9-1.413-4.154-1.413-6.762 0-2.608.47-4.861 1.413-6.761.942-1.9 2.233-3.365 3.875-4.395 1.642-1.03 3.518-1.545 5.627-1.545s3.984.515 5.626 1.545c1.642 1.03 2.934 2.495 3.876 4.395.942 1.9 1.413 4.153 1.413 6.761zm-2.898 0c0-2.14-.358-3.948-1.075-5.42-.708-1.474-1.67-2.589-2.885-3.345-1.208-.757-2.56-1.135-4.057-1.135-1.497 0-2.854.378-4.07 1.135-1.207.756-2.168 1.871-2.885 3.344-.708 1.473-1.062 3.28-1.062 5.421 0 2.142.354 3.949 1.062 5.422.717 1.472 1.678 2.587 2.886 3.344 1.215.757 2.572 1.135 4.069 1.135 1.497 0 2.85-.378 4.057-1.135 1.215-.757 2.177-1.871 2.885-3.344.717-1.474 1.075-3.28 1.075-5.422z" fill="#EBEBEB"/><path d="M80.731 93v-1.47l5.522-6.044a38.397 38.397 0 001.6-1.846c.42-.528.73-1.024.932-1.487.207-.468.31-.958.31-1.47 0-.588-.141-1.097-.424-1.527a2.756 2.756 0 00-1.144-.997 3.707 3.707 0 00-1.633-.35c-.643 0-1.204.133-1.683.4a2.755 2.755 0 00-1.103 1.102c-.256.474-.384 1.03-.384 1.666h-1.927c0-.98.226-1.84.678-2.58a4.71 4.71 0 011.846-1.732c.784-.414 1.663-.621 2.638-.621.98 0 1.848.207 2.605.62.757.415 1.35.973 1.78 1.675a4.4 4.4 0 01.646 2.344c0 .615-.112 1.217-.335 1.805-.218.583-.599 1.234-1.143 1.952-.54.714-1.288 1.585-2.246 2.614l-3.758 4.018v.131h7.776V93H80.731z" fill="#fff"/></svg>