<svg width="88" height="77" fill="none" xmlns="http://www.w3.org/2000/svg"><path d="M26.677 38.128H2.724A2.732 2.732 0 000 40.852v5.447a2.732 2.732 0 002.724 2.724h24.208c2.707 0 5.244 1.856 5.686 4.529a5.454 5.454 0 01-5.38 6.367c-2.4 0-4.443-1.566-5.175-3.728-.357-1.073-1.464-1.72-2.587-1.72h-5.584c-1.669 0-3.013 1.498-2.707 3.133 1.464 7.507 8.103 13.21 16.037 13.21 9.72 0 17.484-8.529 16.207-18.488-1.039-8.24-8.461-14.198-16.752-14.198zM2.724 32.68h57.201c10.164 0 18.182-9.33 15.969-19.867C74.6 6.65 69.612 1.662 63.449.368a16.38 16.38 0 00-19.56 12.853c-.324 1.635 1.038 3.116 2.69 3.116h5.583c1.14 0 2.23-.647 2.588-1.72.732-2.162 2.775-3.728 5.175-3.728 3.303 0 5.942 2.962 5.38 6.367-.443 2.673-2.962 4.529-5.686 4.529H2.724A2.732 2.732 0 000 24.508v5.448a2.732 2.732 0 002.724 2.724zm65.373 5.448H41.488c3.286 2.826 5.652 6.605 6.776 10.895h19.833a8.174 8.174 0 018.172 8.172 8.174 8.174 0 01-8.172 8.172c-3.047 0-5.67-1.686-7.082-4.154-.494-.852-1.481-1.294-2.469-1.294h-5.754c-1.855 0-3.235 1.838-2.605 3.592 3.03 8.614 12.003 14.436 22.03 12.308 7.014-1.48 12.785-7.082 14.42-14.079 2.91-12.461-6.538-23.612-18.54-23.612z" fill="#E1DDDD"/></svg>