<svg width="36" height="24" viewBox="0 0 36 24" fill="none" xmlns="http://www.w3.org/2000/svg">
<path d="M25.4879 6H27C31.9706 6 36 10.0294 36 15C36 19.9706 31.9706 24 27 24H7C3.13401 24 0 20.866 0 17C0 13.4735 2.60771 10.5561 6 10.0709C6 4.47715 10.4772 0 16 0H17C20.9187 0 24.2524 2.50442 25.4879 6ZM25.9451 8C25.9814 8.32833 26 8.66199 26 9C26 9.55228 25.5523 10 25 10C24.4477 10 24 9.55228 24 9C24 5.13401 20.866 2 17 2H16C11.5817 2 8 5.58172 8 10V11C8 11.5523 7.55228 12 7 12C4.23858 12 2 14.2386 2 17C2 19.7614 4.23858 22 7 22H27C30.866 22 34 18.866 34 15C34 11.134 30.866 8 27 8H25.9451Z" fill="#F4F4F4"/>
<path d="M15.5617 15.5096C15.6065 15.5096 15.6463 15.5302 15.6782 15.5724L16 15.9695C15.7559 16.2925 15.4591 16.547 15.1094 16.7284C14.7607 16.9098 14.3393 17 13.8442 17C13.4158 17 13.0273 16.9144 12.6766 16.7444C12.326 16.5743 12.0271 16.3358 11.78 16.0277C11.532 15.7196 11.3397 15.3521 11.2042 14.9208C11.0687 14.4917 11 14.0181 11 13.5023C11 12.9865 11.0717 12.5129 11.2132 12.0827C11.3556 11.6524 11.5539 11.2827 11.8119 10.9746C12.0699 10.6653 12.3778 10.4257 12.7364 10.2545C13.096 10.0844 13.4915 10 13.9249 10C14.3503 10 14.7258 10.0787 15.0516 10.2339C15.3764 10.3891 15.6623 10.6014 15.9103 10.8684L15.6434 11.2941C15.6264 11.3261 15.6055 11.3523 15.5786 11.3728C15.5517 11.3934 15.5158 11.4037 15.472 11.4037C15.4222 11.4037 15.3604 11.3728 15.2887 11.3101C15.216 11.2473 15.1223 11.1788 15.0058 11.1012C14.8892 11.0248 14.7428 10.9563 14.5674 10.8935C14.3921 10.8308 14.1769 10.8 13.9209 10.8C13.6121 10.8 13.3301 10.8627 13.0731 10.9848C12.8181 11.1069 12.5969 11.285 12.4126 11.5178C12.2283 11.7494 12.0839 12.0336 11.9813 12.3679C11.8787 12.7023 11.8279 13.0789 11.8279 13.5C11.8279 13.9268 11.8816 14.3068 11.9882 14.6412C12.0948 14.9755 12.2413 15.2586 12.4266 15.4891C12.6119 15.7196 12.829 15.8965 13.0811 16.0174C13.3331 16.1384 13.6051 16.1989 13.897 16.1989C14.0753 16.1989 14.2357 16.1875 14.3782 16.1624C14.5216 16.1396 14.6531 16.1019 14.7747 16.0505C14.8962 16.0003 15.0078 15.9353 15.1124 15.8577C15.217 15.7789 15.3206 15.6854 15.4242 15.5781C15.468 15.5336 15.5148 15.5096 15.5617 15.5096Z" fill="#EBEAEC"/>
<path d="M23 13.5046C23 14.0173 22.928 14.4878 22.783 14.9183C22.6379 15.3454 22.4351 15.7153 22.1714 16.0248C21.9087 16.3343 21.5913 16.5752 21.2231 16.7454C20.854 16.9155 20.4452 17 19.998 17C19.5507 17 19.143 16.9155 18.7748 16.7454C18.4067 16.5752 18.0913 16.3343 17.8286 16.0248C17.5649 15.7153 17.3611 15.3465 17.217 14.9183C17.072 14.4889 17 14.0173 17 13.5046C17 12.9907 17.072 12.5202 17.217 12.0909C17.3621 11.6626 17.5659 11.2915 17.8286 10.9821C18.0913 10.6715 18.4077 10.4294 18.7748 10.2581C19.142 10.0856 19.5507 10 19.998 10C20.4462 10 20.854 10.0856 21.2231 10.2581C21.5913 10.4294 21.9087 10.6726 22.1714 10.9821C22.4351 11.2927 22.6389 11.6626 22.783 12.0909C22.928 12.5202 23 12.9907 23 13.5046ZM22.1542 13.5046C22.1542 13.0832 22.1034 12.7052 22.001 12.3718C21.8986 12.0361 21.7546 11.7529 21.568 11.5233C21.3813 11.2915 21.1542 11.1145 20.8884 10.99C20.6217 10.8656 20.3245 10.8028 19.9959 10.8028C19.6704 10.8028 19.3753 10.8656 19.1085 10.99C18.8418 11.1145 18.6156 11.2915 18.428 11.5233C18.2394 11.754 18.0943 12.0372 17.9919 12.3718C17.8905 12.7064 17.8387 13.0832 17.8387 13.5046C17.8387 13.9248 17.8905 14.3016 17.9919 14.6351C18.0943 14.9674 18.2383 15.2494 18.428 15.4812C18.6156 15.7131 18.8428 15.8889 19.1085 16.0111C19.3753 16.1344 19.6704 16.1961 19.9959 16.1961C20.3235 16.1961 20.6217 16.1344 20.8884 16.0111C21.1542 15.8889 21.3803 15.7119 21.568 15.4812C21.7556 15.2494 21.8986 14.9674 22.001 14.6351C22.1045 14.3016 22.1542 13.9248 22.1542 13.5046Z" fill="#EBEAEC"/>
</svg>
