<svg width="41" height="50" viewBox="0 0 41 50" fill="none" xmlns="http://www.w3.org/2000/svg">
<path d="M20.4799 46.5258C30.0384 46.5258 37.9599 39.3874 37.9599 30.3776C37.9599 24.7469 35.0866 19.0531 31.8377 14.3838C28.5668 9.68308 24.7951 5.85164 22.7588 3.91619C21.4735 2.6946 19.4864 2.6946 18.201 3.91621C16.1647 5.85164 12.3929 9.68308 9.12217 14.3838C5.87328 19.0531 3 24.7469 3 30.3776C3 39.3874 10.9214 46.5258 20.4799 46.5258Z" stroke="#E7E1E1" stroke-width="5.81119"/>
<path d="M20.4799 38.3685C19.2556 38.3685 18.0434 38.1273 16.9124 37.6588C15.7812 37.1903 14.7535 36.5037 13.8878 35.6379C13.0221 34.7723 12.3354 33.7445 11.8669 32.6134C11.3984 31.4823 11.1573 30.2701 11.1573 29.0459" stroke="#E7E1E1" stroke-width="5.81119" stroke-linecap="round"/>
</svg>
