<svg width="28" height="33" viewBox="0 0 28 33" fill="none" xmlns="http://www.w3.org/2000/svg">
<path d="M1.32102 14V3.09091H5.0071C5.85938 3.09091 6.55895 3.23651 7.10582 3.5277C7.6527 3.81534 8.05753 4.21129 8.32031 4.71555C8.5831 5.21982 8.71449 5.79332 8.71449 6.43608C8.71449 7.07884 8.5831 7.64879 8.32031 8.14595C8.05753 8.64311 7.65447 9.03374 7.11115 9.31783C6.56783 9.59837 5.87358 9.73864 5.02841 9.73864H2.04545V8.54545H4.9858C5.56818 8.54545 6.03693 8.46023 6.39205 8.28977C6.75071 8.11932 7.00994 7.87784 7.16974 7.56534C7.3331 7.24929 7.41477 6.87287 7.41477 6.43608C7.41477 5.99929 7.3331 5.61754 7.16974 5.29084C7.00639 4.96413 6.74538 4.712 6.38672 4.53445C6.02805 4.35334 5.55398 4.26278 4.96449 4.26278H2.64205V14H1.32102ZM6.45597 9.09943L9.14062 14H7.60653L4.96449 9.09943H6.45597Z" fill="#E4E1E1"/>
<path d="M19.8866 32.1889C18.2313 32.1889 16.618 31.6575 15.2752 30.6699C13.9324 29.6824 12.9282 28.2887 12.4047 26.6864C11.8813 25.0841 11.8652 23.3544 12.3587 21.7422C12.8523 20.1301 13.8304 18.7173 15.1546 17.7039V4.82833C15.1546 3.54778 15.6532 2.31967 16.5406 1.41419C17.428 0.508698 18.6316 0 19.8866 0C21.1416 0 22.3452 0.508698 23.2326 1.41419C24.12 2.31967 24.6185 3.54778 24.6185 4.82833V17.7039C25.9427 18.7173 26.9209 20.1301 27.4144 21.7422C27.908 23.3544 27.8919 25.0841 27.3684 26.6864C26.845 28.2887 25.8408 29.6824 24.4979 30.6699C23.1551 31.6575 21.5418 32.1889 19.8866 32.1889ZM21.4639 12.1352V4.82833C21.4672 4.62099 21.4282 4.41522 21.3495 4.22405C21.2708 4.03288 21.1539 3.86049 21.0065 3.71782C20.8617 3.56283 20.6881 3.43887 20.4958 3.3532C20.3035 3.26753 20.0964 3.22186 19.8866 3.21889C19.4682 3.21889 19.0671 3.38845 18.7712 3.69028C18.4754 3.99211 18.3093 4.40148 18.3093 4.82833V12.1352H21.4639Z" fill="#DBD6D7"/>
</svg>
