<svg width="122" height="108" viewBox="0 0 122 108" fill="none" xmlns="http://www.w3.org/2000/svg">
<path d="M65.6178 2.67266C65.1511 1.8604 64.4785 1.18559 63.6678 0.716343C62.857 0.247092 61.9368 0 61.0001 0C60.0633 0 59.1431 0.247092 58.3324 0.716343C57.5216 1.18559 56.849 1.8604 56.3824 2.67266L0.7078 99.5875C0.242602 100.397 -0.00149053 101.315 6.84788e-06 102.249C0.00150422 103.183 0.248539 104.1 0.716331 104.908C1.18412 105.716 1.85622 106.387 2.66522 106.854C3.47421 107.32 4.39164 107.566 5.32549 107.566H116.675C117.608 107.566 118.526 107.32 119.335 106.854C120.144 106.387 120.816 105.716 121.284 104.908C121.751 104.1 121.998 103.183 122 102.249C122.002 101.315 121.757 100.397 121.292 99.5877L65.6178 2.67266ZM10.8461 99.0451L61.0001 11.74L111.154 99.0451H10.8461Z" fill="#E3E2E2"/>
<path d="M52.517 60.4545C52.3722 59.2311 51.7846 58.2812 50.7543 57.6051C49.724 56.929 48.4602 56.5909 46.9631 56.5909C45.8684 56.5909 44.9105 56.768 44.0895 57.1222C43.2765 57.4763 42.6406 57.9633 42.1818 58.5831C41.7311 59.2029 41.5057 59.9072 41.5057 60.696C41.5057 61.3561 41.6626 61.9235 41.9766 62.3984C42.2985 62.8653 42.709 63.2557 43.2081 63.5696C43.7071 63.8755 44.2304 64.129 44.7777 64.3303C45.325 64.5234 45.8281 64.6804 46.2869 64.8011L48.7983 65.4773C49.4422 65.6463 50.1586 65.8797 50.9474 66.1776C51.7443 66.4754 52.505 66.8819 53.2294 67.397C53.9619 67.9041 54.5656 68.5561 55.0405 69.353C55.5154 70.1499 55.7528 71.1278 55.7528 72.2869C55.7528 73.6231 55.4027 74.8305 54.7024 75.9091C54.0102 76.9877 52.996 77.8449 51.6598 78.4808C50.3317 79.1167 48.7178 79.4347 46.8182 79.4347C45.0473 79.4347 43.514 79.1489 42.218 78.5774C40.9302 78.0059 39.916 77.209 39.1754 76.1868C38.4429 75.1645 38.0284 73.9773 37.9318 72.625H41.0227C41.1032 73.5587 41.4171 74.3314 41.9645 74.9432C42.5199 75.5469 43.2202 75.9976 44.0653 76.2955C44.9186 76.5852 45.8362 76.7301 46.8182 76.7301C47.9612 76.7301 48.9875 76.545 49.897 76.1747C50.8066 75.7964 51.527 75.2732 52.0582 74.6051C52.5895 73.929 52.8551 73.1402 52.8551 72.2386C52.8551 71.4176 52.6257 70.7495 52.1669 70.2344C51.7081 69.7192 51.1044 69.3007 50.3558 68.9787C49.6072 68.6567 48.7983 68.375 47.929 68.1335L44.8864 67.2642C42.9545 66.7088 41.4252 65.916 40.2983 64.8857C39.1714 63.8553 38.608 62.5071 38.608 60.8409C38.608 59.4564 38.9822 58.2491 39.7308 57.2188C40.4875 56.1804 41.5017 55.3755 42.7734 54.804C44.0533 54.2244 45.482 53.9347 47.0597 53.9347C48.6534 53.9347 50.0701 54.2204 51.3097 54.7919C52.5492 55.3553 53.5313 56.1281 54.2557 57.1101C54.9882 58.0921 55.3745 59.2069 55.4148 60.4545H52.517ZM81.5396 66.6364C81.5396 69.2443 81.0687 71.4981 80.127 73.3977C79.1852 75.2973 77.8933 76.7623 76.2512 77.7926C74.6092 78.8229 72.7337 79.3381 70.6248 79.3381C68.5159 79.3381 66.6404 78.8229 64.9984 77.7926C63.3564 76.7623 62.0645 75.2973 61.1227 73.3977C60.1809 71.4981 59.71 69.2443 59.71 66.6364C59.71 64.0284 60.1809 61.7746 61.1227 59.875C62.0645 57.9754 63.3564 56.5104 64.9984 55.4801C66.6404 54.4498 68.5159 53.9347 70.6248 53.9347C72.7337 53.9347 74.6092 54.4498 76.2512 55.4801C77.8933 56.5104 79.1852 57.9754 80.127 59.875C81.0687 61.7746 81.5396 64.0284 81.5396 66.6364ZM78.6419 66.6364C78.6419 64.4953 78.2837 62.6882 77.5673 61.2152C76.859 59.7422 75.8971 58.6274 74.6816 57.8707C73.4743 57.1141 72.122 56.7358 70.6248 56.7358C69.1277 56.7358 67.7714 57.1141 66.5559 57.8707C65.3485 58.6274 64.3867 59.7422 63.6703 61.2152C62.9619 62.6882 62.6078 64.4953 62.6078 66.6364C62.6078 68.7775 62.9619 70.5845 63.6703 72.0575C64.3867 73.5305 65.3485 74.6454 66.5559 75.402C67.7714 76.1586 69.1277 76.5369 70.6248 76.5369C72.122 76.5369 73.4743 76.1586 74.6816 75.402C75.8971 74.6454 76.859 73.5305 77.5673 72.0575C78.2837 70.5845 78.6419 68.7775 78.6419 66.6364Z" fill="#EBEBEB"/>
<path d="M80.7315 93V91.5298L86.2528 85.4858C86.9008 84.7779 87.4344 84.1626 87.8537 83.6399C88.273 83.1117 88.5833 82.6162 88.7848 82.1534C88.9917 81.6851 89.0952 81.1951 89.0952 80.6832C89.0952 80.0952 88.9536 79.5861 88.6705 79.1559C88.3928 78.7257 88.0116 78.3936 87.527 78.1594C87.0424 77.9253 86.4979 77.8082 85.8935 77.8082C85.2509 77.8082 84.6901 77.9416 84.2109 78.2085C83.7372 78.4698 83.3697 78.8374 83.1083 79.3111C82.8524 79.7848 82.7244 80.3402 82.7244 80.9773H80.7969C80.7969 79.9972 81.0228 79.1368 81.4748 78.3963C81.9267 77.6558 82.542 77.0786 83.3207 76.6648C84.1048 76.2509 84.9841 76.044 85.9588 76.044C86.9389 76.044 87.8074 76.2509 88.5643 76.6648C89.3211 77.0786 89.9147 77.6367 90.3448 78.3391C90.775 79.0415 90.9901 79.8229 90.9901 80.6832C90.9901 81.2985 90.8784 81.9002 90.6552 82.4883C90.4374 83.0709 90.0562 83.7216 89.5117 84.4403C88.9727 85.1536 88.224 86.0249 87.2656 87.054L83.5085 91.0724V91.2031H91.2841V93H80.7315Z" fill="white"/>
</svg>
