<svg width="88" height="77" viewBox="0 0 88 77" fill="none" xmlns="http://www.w3.org/2000/svg">
<path d="M26.677 38.1278H2.72388C1.22574 38.1278 0 39.3535 0 40.8516V46.2994C0 47.7975 1.22574 49.0233 2.72388 49.0233H26.9323C29.6392 49.0233 32.1758 50.8789 32.6184 53.5517C33.1802 56.9566 30.5585 59.9188 27.2388 59.9188C24.8383 59.9188 22.7954 58.3526 22.0634 56.1905C21.7059 55.1179 20.5993 54.471 19.4757 54.471H13.8918C12.2234 54.471 10.8785 55.9692 11.1849 57.6035C12.649 65.1112 19.2884 70.8143 27.2217 70.8143C36.9426 70.8143 44.7056 62.2851 43.4288 52.326C42.3903 44.0862 34.9678 38.1278 26.677 38.1278ZM2.72388 32.68H59.9253C70.0887 32.68 78.1071 23.3507 75.894 12.8128C74.6001 6.64999 69.612 1.66189 63.4493 0.368049C54.0179 -1.60676 45.5568 4.60708 43.8884 13.2213C43.565 14.8557 44.9269 16.3368 46.5783 16.3368H52.1622C53.3028 16.3368 54.3924 15.6898 54.7499 14.6173C55.4819 12.4552 57.5248 10.889 59.9253 10.889C63.228 10.889 65.8667 13.8512 65.3049 17.2561C64.8623 19.9289 62.3427 21.7845 59.6188 21.7845H2.72388C1.22574 21.7845 0 23.0103 0 24.5084V29.9561C0 31.4543 1.22574 32.68 2.72388 32.68ZM68.0969 38.1278H41.488C44.7737 40.9538 47.1401 44.7332 48.2637 49.0233H68.0969C72.6083 49.0233 76.2685 52.6835 76.2685 57.1949C76.2685 61.7063 72.6083 65.3665 68.0969 65.3665C65.0496 65.3665 62.4278 63.6811 61.0148 61.2126C60.5211 60.3614 59.5337 59.9188 58.5463 59.9188H52.7921C50.9365 59.9188 49.5575 61.7574 50.1874 63.5109C53.2177 72.1251 62.1895 77.9474 72.2168 75.8194C79.2307 74.3383 85.0019 68.7373 86.6363 61.7404C89.5474 49.2786 80.099 38.1278 68.0969 38.1278Z" fill="#E1DDDD"/>
</svg>
